<svg xmlns="http://www.w3.org/2000/svg" viewBox="0 0 120 120" role="img" aria-label="安徽上岩科技">
  <circle cx="60" cy="60" r="58" fill="#ff7908"/>
  <path d="M13 63c0-29 22-52 52-55v36c0 4 3 7 7 7h25v18H72c-4 0-7 3-7 7v34C35 107 13 84 13 63Z" fill="#fff"/>
  <path d="M31 28v52c0 7 5 12 12 12h8" fill="none" stroke="#ff7908" stroke-width="9" stroke-linecap="round"/>
  <path d="M48 24v28M48 52h42M90 24v17" fill="none" stroke="#fff" stroke-width="9" stroke-linecap="round"/>
  <path d="M58 72h31c5 0 8 3 8 8v10c0 5-3 8-8 8H58c-5 0-8-3-8-8V80c0-5 3-8 8-8Z" fill="none" stroke="#fff" stroke-width="9" stroke-linejoin="round"/>
  <path d="M66 85h18" fill="none" stroke="#fff" stroke-width="9" stroke-linecap="round"/>
</svg>
